<?xml version="1.0" standalone="no"?><!DOCTYPE svg PUBLIC "-//W3C//DTD SVG 1.1//EN" "http://www.w3.org/Graphics/SVG/1.1/DTD/svg11.dtd"><svg t="1711192482163" class="icon" viewBox="0 0 1024 1024" version="1.1" xmlns="http://www.w3.org/2000/svg" p-id="6579" xmlns:xlink="http://www.w3.org/1999/xlink" width="200" height="200"><path d="M774.4 832H153.6V204.8h249.6c19.2 0 38.4-19.2 38.4-38.4S422.4 128 403.2 128H115.2c-19.2 0-38.4 19.2-38.4 38.4v704c0 19.2 19.2 38.4 38.4 38.4h659.2c19.2 0 38.4-19.2 38.4-38.4s-12.8-38.4-38.4-38.4z" p-id="6580"></path><path d="M755.2 524.8c38.4-38.4 83.2-102.4 83.2-166.4 0-115.2-89.6-204.8-198.4-204.8S435.2 249.6 435.2 358.4c0 102.4 89.6 185.6 179.2 198.4 153.6 0 268.8 140.8 275.2 307.2v19.2H960v-19.2c0-147.2-76.8-275.2-204.8-339.2zM640 492.8c-76.8 0-134.4-51.2-140.8-121.6-6.4-83.2 51.2-140.8 128-147.2 76.8-6.4 140.8 57.6 147.2 128v12.8c6.4 70.4-57.6 128-134.4 128zM243.2 691.2c0 19.2 19.2 38.4 38.4 38.4h326.4c19.2 0 38.4-19.2 38.4-38.4s-19.2-38.4-38.4-38.4H281.6c-19.2 0-38.4 12.8-38.4 38.4z" p-id="6581"></path></svg>